<?xml version="1.0" encoding="iso-8859-1"?>
<!-- Uploaded to: SVG Repo, www.svgrepo.com, Generator: SVG Repo Mixer Tools -->
<svg version="1.1" id="Layer_1" xmlns="http://www.w3.org/2000/svg" xmlns:xlink="http://www.w3.org/1999/xlink" 
	 viewBox="0 0 464 464" xml:space="preserve">
<g>
	<g>
		<path style="fill:#64AFF0;" d="M282.331,32c0,0,6,61.333,64,104l-8,8c0,0-32-17-72-72h-40L282.331,32z"/>
	</g>
	<g>
		<path style="fill:#55A0E1;" d="M287.789,55.125C283.284,41.31,282.331,32,282.331,32l-56,40h29.039
			C265.986,65.094,277.151,59.534,287.789,55.125z"/>
	</g>
	<g>
		<path style="fill:#EBE6E6;" d="M154.138,27.32L186.331,74h49.754c39.246-31,94.246-42,94.246-42V0l-170.3,14.809
			C153.919,15.34,150.655,22.27,154.138,27.32z"/>
	</g>
	<g>
		<rect x="178.331" y="99" style="fill:#D2CDCD;" width="64" height="26"/>
	</g>
	<g>
		<path style="fill:#64AFF0;" d="M251.765,211.923l5.342-74.783c0.662-9.262-6.674-17.14-15.959-17.14h-62.355
			c-5.404,0-10.462,2.701-13.391,7.242c-11.413,17.689-39.551,66.823-51.07,136.758c-10.393,63.102-0.946,142.738,4.611,179.582
			C120.715,455.34,130.786,464,142.676,464h132.595c12.882,0,23.466-10.169,23.981-23.041l6.302-157.539
			c0.477-11.932-5.729-23.138-16.098-29.063l-21.649-12.371C257.125,235.882,250.888,224.195,251.765,211.923z"/>
	</g>
	<g>
		<path style="fill:#55A0E1;" d="M159.693,443.582c-5.557-36.844-15.004-116.48-4.611-179.582
			c11.519-69.935,39.657-119.069,51.07-136.758c2.93-4.541,7.987-7.242,13.391-7.242h-40.751c-5.404,0-10.461,2.701-13.392,7.242
			c-11.413,17.689-39.551,66.824-51.07,136.758c-10.394,63.102-0.946,142.738,4.611,179.582
			C120.715,455.339,130.786,464,142.676,464h40.751C171.537,464,161.466,455.339,159.693,443.582z"/>
	</g>
	<g>
		<path style="fill:#EBE6E6;" d="M241.147,120h-62.355c-5.404,0-10.461,2.701-13.392,7.242
			c-7.506,11.635-22.234,36.945-34.724,72.758h121.939l4.49-62.86C257.768,127.878,250.433,120,241.147,120z"/>
	</g>
	<g>
		<path style="fill:#DCD7D7;" d="M161.854,132.935c-0.93,1.531-1.912,3.185-2.949,4.975c-0.173,0.298-0.343,0.588-0.519,0.893
			c-7.877,13.71-18.408,34.528-27.708,61.195V200h40.751c12.49-35.813,27.217-61.124,34.724-72.758
			c2.93-4.541,7.987-7.242,13.391-7.242h-40.751c-5.404,0-10.461,2.701-13.392,7.242c-0.853,1.322-1.825,2.874-2.851,4.545
			C162.326,132.15,162.084,132.554,161.854,132.935z"/>
	</g>
	<g>
		<path style="fill:#EBE6E6;" d="M240.084,104h-59.508c-5.205,0-9.023-4.891-7.761-9.94l4-16c0.89-3.561,4.09-6.06,7.761-6.06
			h51.508c3.671,0,6.871,2.498,7.761,6.06l4,16C249.108,99.109,245.289,104,240.084,104z"/>
	</g>
	<g>
		<path style="fill:#DCD7D7;" d="M202.573,94.06l4-16c0.891-3.562,4.09-6.06,7.761-6.06h-29.758c-3.671,0-6.871,2.498-7.761,6.06
			l-4,16c-1.262,5.049,2.557,9.94,7.761,9.94h29.758C205.13,104,201.311,99.109,202.573,94.06z"/>
	</g>
	<g>
		<path style="fill:#64AFF0;" d="M348.86,25.823L330.331,32V0l18.53,6.177c3.267,1.089,5.47,4.146,5.47,7.589v4.468
			C354.331,21.677,352.127,24.734,348.86,25.823z"/>
	</g>
	<g>
		<rect x="202.331" y="120" style="fill:#DCD7D7;" width="16" height="80"/>
	</g>
	<path style="fill:#55A0E1;" d="M218.331,426.158V200h-16v226.158c-4.778,2.768-8,7.923-8,13.842v8h32v-8
		C226.331,434.081,223.108,428.926,218.331,426.158z"/>
	<g>
		<path style="fill:#FFFFFF;" d="M266.331,408h-120c-8.837,0-16-7.163-16-16v-72c0-8.837,7.163-16,16-16h120c8.837,0,16,7.163,16,16
			v72C282.331,400.837,275.167,408,266.331,408z"/>
	</g>
	<g>
		<path style="fill:#EBE6E6;" d="M151.038,304h-4.708c-8.836,0-16,7.163-16,16v72c0,8.836,7.164,16,16,16h8.747
			C151.828,378.298,149.242,340.506,151.038,304z"/>
	</g>
</g>
</svg>